<mxfile host="app.diagrams.net" modified="2023-07-26T14:47:34.399Z" agent="Mozilla/5.0 (Windows NT 10.0; Win64; x64) AppleWebKit/537.36 (KHTML, like Gecko) Chrome/115.0.0.0 Safari/537.36 Edg/115.0.1901.183" etag="731mndmmlCDvHivsvZx-" version="21.6.3" type="github">
  <diagram name="Copy of Page-1" id="fJT9yR7--WeHJss9PMDG">
    <mxGraphModel dx="995" dy="540" grid="1" gridSize="10" guides="1" tooltips="1" connect="1" arrows="1" fold="1" page="1" pageScale="1" pageWidth="827" pageHeight="1169" math="0" shadow="0">
      <root>
        <mxCell id="50VqObcNT-mN6T7bj17H-0" />
        <mxCell id="50VqObcNT-mN6T7bj17H-1" parent="50VqObcNT-mN6T7bj17H-0" />
        <mxCell id="50VqObcNT-mN6T7bj17H-2" value="" style="rounded=1;whiteSpace=wrap;html=1;fillColor=#eeeeee;strokeColor=#36393d;" parent="50VqObcNT-mN6T7bj17H-1" vertex="1">
          <mxGeometry x="63.17" y="134" width="120" height="320" as="geometry" />
        </mxCell>
        <mxCell id="50VqObcNT-mN6T7bj17H-3" value="Admin Portal" style="pointerEvents=1;shadow=0;dashed=0;html=1;strokeColor=#6c8ebf;fillColor=#dae8fc;aspect=fixed;labelPosition=center;verticalLabelPosition=bottom;verticalAlign=top;align=center;outlineConnect=0;shape=mxgraph.vvd.web_browser;rounded=1;" parent="50VqObcNT-mN6T7bj17H-1" vertex="1">
          <mxGeometry x="95" y="204" width="56.34" height="40" as="geometry" />
        </mxCell>
        <mxCell id="50VqObcNT-mN6T7bj17H-4" value="EComm Portal" style="pointerEvents=1;shadow=0;dashed=0;html=1;strokeColor=#6c8ebf;fillColor=#dae8fc;aspect=fixed;labelPosition=center;verticalLabelPosition=bottom;verticalAlign=top;align=center;outlineConnect=0;shape=mxgraph.vvd.web_browser;rounded=1;" parent="50VqObcNT-mN6T7bj17H-1" vertex="1">
          <mxGeometry x="98.16999999999999" y="324" width="50" height="35.5" as="geometry" />
        </mxCell>
        <mxCell id="50VqObcNT-mN6T7bj17H-5" value="" style="group;rounded=1;fillColor=none;strokeColor=none;" parent="50VqObcNT-mN6T7bj17H-1" vertex="1" connectable="0">
          <mxGeometry x="299" y="161" width="508" height="310" as="geometry" />
        </mxCell>
        <mxCell id="50VqObcNT-mN6T7bj17H-6" value="" style="group" parent="50VqObcNT-mN6T7bj17H-5" vertex="1" connectable="0">
          <mxGeometry x="-1" width="508" height="290" as="geometry" />
        </mxCell>
        <mxCell id="50VqObcNT-mN6T7bj17H-7" value="" style="rounded=0;whiteSpace=wrap;html=1;fillColor=#dae8fc;strokeColor=#6c8ebf;" parent="50VqObcNT-mN6T7bj17H-6" vertex="1">
          <mxGeometry x="-67" y="-27" width="517" height="317" as="geometry" />
        </mxCell>
        <mxCell id="50VqObcNT-mN6T7bj17H-8" value="" style="rounded=1;whiteSpace=wrap;html=1;fillColor=#d5e8d4;strokeColor=#82b366;" parent="50VqObcNT-mN6T7bj17H-6" vertex="1">
          <mxGeometry x="36" width="220" height="252.8846153846154" as="geometry" />
        </mxCell>
        <mxCell id="50VqObcNT-mN6T7bj17H-9" value="" style="rounded=1;whiteSpace=wrap;html=1;" parent="50VqObcNT-mN6T7bj17H-6" vertex="1">
          <mxGeometry x="61.38461538461539" y="27.094780219780223" width="42.30769230769231" height="198.69505494505498" as="geometry" />
        </mxCell>
        <mxCell id="50VqObcNT-mN6T7bj17H-10" value="API" style="text;html=1;strokeColor=none;fillColor=none;align=center;verticalAlign=middle;whiteSpace=wrap;rounded=1;rotation=-90;" parent="50VqObcNT-mN6T7bj17H-6" vertex="1">
          <mxGeometry x="52.92307692307692" y="121.92651098901099" width="50.76923076923077" height="27.094780219780223" as="geometry" />
        </mxCell>
        <mxCell id="50VqObcNT-mN6T7bj17H-11" value="" style="group;rounded=1;" parent="50VqObcNT-mN6T7bj17H-6" vertex="1" connectable="0">
          <mxGeometry x="112.15384615384616" y="90.31593406593407" width="42.30769230769231" height="135.47390109890108" as="geometry" />
        </mxCell>
        <mxCell id="50VqObcNT-mN6T7bj17H-12" value="" style="rounded=1;whiteSpace=wrap;html=1;" parent="50VqObcNT-mN6T7bj17H-11" vertex="1">
          <mxGeometry width="42.30769230769231" height="135.47390109890108" as="geometry" />
        </mxCell>
        <mxCell id="50VqObcNT-mN6T7bj17H-13" value="Application" style="text;html=1;strokeColor=none;fillColor=none;align=center;verticalAlign=middle;whiteSpace=wrap;rounded=1;rotation=-90;" parent="50VqObcNT-mN6T7bj17H-11" vertex="1">
          <mxGeometry x="-4.23076923076923" y="58.500093656343644" width="50.76923076923076" height="18.473713786213782" as="geometry" />
        </mxCell>
        <mxCell id="50VqObcNT-mN6T7bj17H-14" value="" style="group;rounded=1;" parent="50VqObcNT-mN6T7bj17H-6" vertex="1" connectable="0">
          <mxGeometry x="165.46153846153845" y="90.31593406593407" width="42.30769230769231" height="136.37706043956044" as="geometry" />
        </mxCell>
        <mxCell id="50VqObcNT-mN6T7bj17H-15" value="" style="rounded=1;whiteSpace=wrap;html=1;" parent="50VqObcNT-mN6T7bj17H-14" vertex="1">
          <mxGeometry width="42.30769230769231" height="136.37706043956044" as="geometry" />
        </mxCell>
        <mxCell id="50VqObcNT-mN6T7bj17H-16" value="Infrastructure" style="text;html=1;strokeColor=none;fillColor=none;align=center;verticalAlign=middle;whiteSpace=wrap;rounded=1;rotation=-90;" parent="50VqObcNT-mN6T7bj17H-14" vertex="1">
          <mxGeometry x="-4.23076923076923" y="58.890094280719275" width="50.76923076923076" height="18.596871878121878" as="geometry" />
        </mxCell>
        <mxCell id="50VqObcNT-mN6T7bj17H-17" value="Domain" style="rounded=1;whiteSpace=wrap;html=1;" parent="50VqObcNT-mN6T7bj17H-6" vertex="1">
          <mxGeometry x="112.15384615384616" y="27.094780219780223" width="101.53846153846153" height="54.189560439560445" as="geometry" />
        </mxCell>
        <mxCell id="50VqObcNT-mN6T7bj17H-18" value="AWS firewall" style="rounded=0;whiteSpace=wrap;html=1;fillColor=#fff2cc;strokeColor=#d6b656;" parent="50VqObcNT-mN6T7bj17H-6" vertex="1">
          <mxGeometry x="-34" y="9" width="39" height="240" as="geometry" />
        </mxCell>
        <mxCell id="50VqObcNT-mN6T7bj17H-19" value="" style="endArrow=classic;html=1;rounded=1;exitX=1.056;exitY=0.417;exitDx=0;exitDy=0;exitPerimeter=0;entryX=0.004;entryY=0.428;entryDx=0;entryDy=0;entryPerimeter=0;flowAnimation=1;" parent="50VqObcNT-mN6T7bj17H-6" edge="1">
          <mxGeometry width="50" height="50" relative="1" as="geometry">
            <mxPoint x="7.183999999999969" y="115.08000000000004" as="sourcePoint" />
            <mxPoint x="36.88000000000011" y="114.23461538461538" as="targetPoint" />
          </mxGeometry>
        </mxCell>
        <mxCell id="50VqObcNT-mN6T7bj17H-20" value="Postgres DB" style="text;html=1;strokeColor=none;fillColor=none;align=center;verticalAlign=middle;whiteSpace=wrap;rounded=0;" parent="50VqObcNT-mN6T7bj17H-6" vertex="1">
          <mxGeometry x="321" y="213" width="60" height="30" as="geometry" />
        </mxCell>
        <mxCell id="50VqObcNT-mN6T7bj17H-21" value="" style="html=1;verticalLabelPosition=bottom;align=center;labelBackgroundColor=#ffffff;verticalAlign=top;strokeWidth=2;strokeColor=#0080F0;shadow=0;dashed=0;shape=mxgraph.ios7.icons.data;rounded=1;" parent="50VqObcNT-mN6T7bj17H-5" vertex="1">
          <mxGeometry x="323" y="173" width="47" height="37" as="geometry" />
        </mxCell>
        <mxCell id="50VqObcNT-mN6T7bj17H-22" style="edgeStyle=orthogonalEdgeStyle;rounded=1;orthogonalLoop=1;jettySize=auto;html=1;exitX=0.021;exitY=0.575;exitDx=0;exitDy=0;exitPerimeter=0;flowAnimation=1;entryX=0.989;entryY=0.676;entryDx=0;entryDy=0;entryPerimeter=0;" parent="50VqObcNT-mN6T7bj17H-1" target="50VqObcNT-mN6T7bj17H-8" edge="1">
          <mxGeometry relative="1" as="geometry">
            <mxPoint x="625.008" y="370.79999999999995" as="sourcePoint" />
          </mxGeometry>
        </mxCell>
        <mxCell id="50VqObcNT-mN6T7bj17H-23" style="edgeStyle=orthogonalEdgeStyle;rounded=1;orthogonalLoop=1;jettySize=auto;html=1;exitX=0.021;exitY=0.575;exitDx=0;exitDy=0;exitPerimeter=0;entryX=0.625;entryY=0;entryDx=0;entryDy=0;entryPerimeter=0;flowAnimation=1;" parent="50VqObcNT-mN6T7bj17H-1" edge="1">
          <mxGeometry relative="1" as="geometry">
            <mxPoint x="557" y="296" as="sourcePoint" />
            <mxPoint x="644" y="334" as="targetPoint" />
          </mxGeometry>
        </mxCell>
        <mxCell id="50VqObcNT-mN6T7bj17H-24" value="AWS secure Store" style="sketch=0;outlineConnect=0;fontColor=#232F3E;gradientColor=none;fillColor=#B0084D;strokeColor=none;dashed=0;verticalLabelPosition=bottom;verticalAlign=top;align=center;html=1;fontSize=12;fontStyle=0;aspect=fixed;pointerEvents=1;shape=mxgraph.aws4.parameter_store;rounded=1;" parent="50VqObcNT-mN6T7bj17H-1" vertex="1">
          <mxGeometry x="624" y="144" width="70.19" height="73" as="geometry" />
        </mxCell>
        <mxCell id="50VqObcNT-mN6T7bj17H-25" value="" style="endArrow=classic;startArrow=classic;html=1;rounded=1;exitX=1.009;exitY=0.425;exitDx=0;exitDy=0;exitPerimeter=0;entryX=-0.066;entryY=0.663;entryDx=0;entryDy=0;entryPerimeter=0;comic=0;flowAnimation=1;" parent="50VqObcNT-mN6T7bj17H-1" source="50VqObcNT-mN6T7bj17H-8" target="50VqObcNT-mN6T7bj17H-24" edge="1">
          <mxGeometry width="50" height="50" relative="1" as="geometry">
            <mxPoint x="304" y="364" as="sourcePoint" />
            <mxPoint x="354" y="314" as="targetPoint" />
            <Array as="points">
              <mxPoint x="584" y="267" />
              <mxPoint x="584" y="194" />
            </Array>
          </mxGeometry>
        </mxCell>
        <mxCell id="50VqObcNT-mN6T7bj17H-26" style="edgeStyle=orthogonalEdgeStyle;rounded=1;orthogonalLoop=1;jettySize=auto;html=1;flowAnimation=1;" parent="50VqObcNT-mN6T7bj17H-1" source="50VqObcNT-mN6T7bj17H-4" edge="1">
          <mxGeometry relative="1" as="geometry">
            <mxPoint x="259" y="287" as="targetPoint" />
            <Array as="points">
              <mxPoint x="209" y="342" />
              <mxPoint x="209" y="287" />
            </Array>
          </mxGeometry>
        </mxCell>
        <mxCell id="50VqObcNT-mN6T7bj17H-27" style="edgeStyle=orthogonalEdgeStyle;rounded=1;orthogonalLoop=1;jettySize=auto;html=1;flowAnimation=1;" parent="50VqObcNT-mN6T7bj17H-1" source="50VqObcNT-mN6T7bj17H-3" edge="1">
          <mxGeometry relative="1" as="geometry">
            <mxPoint x="259" y="287" as="targetPoint" />
            <Array as="points">
              <mxPoint x="209" y="224" />
              <mxPoint x="209" y="287" />
            </Array>
          </mxGeometry>
        </mxCell>
        <mxCell id="50VqObcNT-mN6T7bj17H-28" value="" style="endArrow=classic;html=1;rounded=1;flowAnimation=1;" parent="50VqObcNT-mN6T7bj17H-1" edge="1">
          <mxGeometry width="50" height="50" relative="1" as="geometry">
            <mxPoint x="333" y="312" as="sourcePoint" />
            <mxPoint x="303" y="312" as="targetPoint" />
          </mxGeometry>
        </mxCell>
        <mxCell id="50VqObcNT-mN6T7bj17H-29" value="AWS cloud" style="text;html=1;strokeColor=none;fillColor=none;align=center;verticalAlign=middle;whiteSpace=wrap;rounded=0;" parent="50VqObcNT-mN6T7bj17H-1" vertex="1">
          <mxGeometry x="451" y="420" width="98" height="30" as="geometry" />
        </mxCell>
        <mxCell id="50VqObcNT-mN6T7bj17H-30" value="Spovix Application Architecture" style="text;html=1;fillColor=none;align=center;verticalAlign=middle;whiteSpace=wrap;rounded=0;fontStyle=0;labelBackgroundColor=none;labelBorderColor=none;" parent="50VqObcNT-mN6T7bj17H-1" vertex="1">
          <mxGeometry x="395" y="471" width="210" height="30" as="geometry" />
        </mxCell>
        <mxCell id="50VqObcNT-mN6T7bj17H-31" value="Clients" style="text;html=1;strokeColor=none;fillColor=none;align=center;verticalAlign=middle;whiteSpace=wrap;rounded=0;" parent="50VqObcNT-mN6T7bj17H-1" vertex="1">
          <mxGeometry x="91.34" y="154" width="60" height="30" as="geometry" />
        </mxCell>
      </root>
    </mxGraphModel>
  </diagram>
</mxfile>
